<svg width="24" height="24" viewBox="0 0 24 24" fill="none" xmlns="http://www.w3.org/2000/svg">
<path d="M9.60417 15.8333C7.86319 15.8333 6.38992 15.2302 5.18433 14.024C3.97875 12.8178 3.37564 11.3445 3.375 9.60417C3.37436 7.86383 3.97747 6.39056 5.18433 5.18433C6.39119 3.97811 7.86447 3.375 9.60417 3.375C11.3439 3.375 12.8175 3.97811 14.025 5.18433C15.2325 6.39056 15.8353 7.86383 15.8333 9.60417C15.8333 10.3069 15.7215 10.9698 15.4979 11.5927C15.2743 12.2156 14.9708 12.7667 14.5875 13.2458L19.9542 18.6125C20.1299 18.7882 20.2177 19.0118 20.2177 19.2833C20.2177 19.5549 20.1299 19.7785 19.9542 19.9542C19.7785 20.1299 19.5549 20.2177 19.2833 20.2177C19.0118 20.2177 18.7882 20.1299 18.6125 19.9542L13.2458 14.5875C12.7667 14.9708 12.2156 15.2743 11.5927 15.4979C10.9698 15.7215 10.3069 15.8333 9.60417 15.8333ZM9.60417 13.9167C10.8021 13.9167 11.8205 13.4976 12.6593 12.6593C13.4982 11.8211 13.9173 10.8027 13.9167 9.60417C13.916 8.40561 13.4969 7.38754 12.6593 6.54996C11.8218 5.71238 10.8034 5.29294 9.60417 5.29167C8.40497 5.29039 7.3869 5.70982 6.54996 6.54996C5.71301 7.3901 5.29358 8.40817 5.29167 9.60417C5.28975 10.8002 5.70918 11.8186 6.54996 12.6593C7.39074 13.5001 8.40881 13.9192 9.60417 13.9167Z" fill="#F0F2F5"/>
</svg>
